<svg width="134" height="100" viewBox="0 0 134 100" fill="none" xmlns="http://www.w3.org/2000/svg">
<g clip-path="url(#clip0_27_19)">
<mask id="mask0_27_19" style="mask-type:alpha" maskUnits="userSpaceOnUse" x="0" y="0" width="134" height="100">
<path d="M0.00341797 0H133.337V100H0.00341797V0Z" fill="white"/>
</mask>
<g mask="url(#mask0_27_19)">
<path fill-rule="evenodd" clip-rule="evenodd" d="M0.00341797 0V100H133.337V0H0.00341797Z" fill="#2E42A5"/>
<mask id="mask1_27_19" style="mask-type:alpha" maskUnits="userSpaceOnUse" x="0" y="0" width="134" height="100">
<path fill-rule="evenodd" clip-rule="evenodd" d="M0.00341797 0V100H133.337V0H0.00341797Z" fill="white"/>
</mask>
<g mask="url(#mask1_27_19)">
<mask id="mask2_27_19" style="mask-type:alpha" maskUnits="userSpaceOnUse" x="0" y="0" width="134" height="100">
<path d="M0.00341797 0H133.337V100H0.00341797V0Z" fill="white"/>
</mask>
<g mask="url(#mask2_27_19)">
<path d="M-14.8423 92.8523L14.4994 105.265L133.999 13.4898L149.479 -4.95182L118.104 -9.09766L69.3619 30.4482L30.1285 57.0982L-14.8423 92.8523V92.8523Z" fill="white"/>
<path d="M-10.8301 101.548L4.12409 108.748L143.92 -6.66406H122.932L-10.8259 101.544L-10.8301 101.548Z" fill="#F50100"/>
<path d="M148.183 92.8523L118.841 105.265L-0.659017 13.4898L-16.1382 -4.95182L15.2368 -9.09766L63.9785 30.4482L103.212 57.0982L148.183 92.8523Z" fill="white"/>
<path d="M147.183 99.0927L132.233 106.293L72.7076 56.876L55.0576 51.3594L-17.6299 -4.89062H3.36178L76.0034 50.026L95.2993 56.6427L147.183 99.0927Z" fill="#F50100"/>
<mask id="mask3_27_19" style="mask-type:alpha" maskUnits="userSpaceOnUse" x="-9" y="-9" width="151" height="118">
<path fill-rule="evenodd" clip-rule="evenodd" d="M82.4116 -8.33594H50.9283V33.3307H-8.21338V66.6641H50.9283V108.331H82.4116V66.6641H141.787V33.3307H82.4116V-8.33594V-8.33594Z" fill="white"/>
</mask>
<g mask="url(#mask3_27_19)">
<path fill-rule="evenodd" clip-rule="evenodd" d="M82.4116 -8.33594H50.9283V33.3307H-8.21338V66.6641H50.9283V108.331H82.4116V66.6641H141.787V33.3307H82.4116V-8.33594V-8.33594Z" fill="#F50100"/>
<path d="M50.9286 -8.33464V-16.668H42.5953V-8.33464H50.9286ZM82.4119 -8.33464H90.7453V-16.668H82.4119V-8.33464ZM50.9286 33.332V41.6654H59.2619V33.332H50.9286ZM-8.21305 33.332V24.9987H-16.5464V33.332H-8.21305ZM-8.21305 66.6654H-16.5464V74.9987H-8.21305V66.6654ZM50.9286 66.6654H59.2619V58.332H50.9286V66.6654ZM50.9286 108.332H42.5953V116.665H50.9286V108.332ZM82.4119 108.332V116.665H90.7453V108.332H82.4119ZM82.4119 66.6654V58.332H74.0786V66.6654H82.4119ZM141.787 66.6654V74.9987H150.12V66.6654H141.787ZM141.787 33.332H150.12V24.9987H141.787V33.332ZM82.4119 33.332H74.0786V41.6654H82.4119V33.332ZM50.9286 -0.00130272H82.4119V-16.668H50.9286V-0.00130272ZM59.2619 33.332V-8.33464H42.5953V33.332H59.2619ZM-8.21305 41.6654H50.9286V24.9987H-8.21305V41.6654V41.6654ZM0.120279 66.6654V33.332H-16.5464V66.6654H0.120279ZM50.9286 58.332H-8.21305V74.9987H50.9286V58.332V58.332ZM59.2619 108.332V66.6654H42.5953V108.332H59.2619ZM82.4119 99.9987H50.9286V116.665H82.4119V99.9987ZM74.0786 66.6654V108.332H90.7453V66.6654H74.0786ZM141.787 58.332H82.4119V74.9987H141.787V58.332ZM133.454 33.332V66.6654H150.12V33.332H133.454ZM82.4119 41.6654H141.787V24.9987H82.4119V41.6654ZM74.0786 -8.33464V33.332H90.7453V-8.33464H74.0786Z" fill="white"/>
</g>
</g>
</g>
</g>
</g>
<defs>
<clipPath id="clip0_27_19">
<rect width="133.34" height="100" fill="white"/>
</clipPath>
</defs>
</svg>
