<svg width="100" height="100" viewBox="0 0 100 100" fill="none" xmlns="http://www.w3.org/2000/svg">
<g clip-path="url(#clip0_27_11)">
<path d="M100 75.0017C100 77.9486 98.8294 80.7747 96.7456 82.8585C94.6619 84.9422 91.8357 86.1128 88.8889 86.1128H11.1111C8.16426 86.1128 5.33811 84.9422 3.25437 82.8585C1.17063 80.7747 0 77.9486 0 75.0017V25.0017C0 22.0549 1.17063 19.2287 3.25437 17.145C5.33811 15.0613 8.16426 13.8906 11.1111 13.8906H88.8889C91.8357 13.8906 94.6619 15.0613 96.7456 17.145C98.8294 19.2287 100 22.0549 100 25.0017V75.0017Z" fill="#009B3A"/>
<path d="M90.9111 50.0004L50 80.9004L9.08887 50.0004L50 19.0977L90.9111 50.0004Z" fill="#FEDF01"/>
<path d="M49.9335 67.7293C59.8409 67.7293 67.8724 59.6978 67.8724 49.7905C67.8724 39.8831 59.8409 31.8516 49.9335 31.8516C40.0261 31.8516 31.9946 39.8831 31.9946 49.7905C31.9946 59.6978 40.0261 67.7293 49.9335 67.7293Z" fill="#002776"/>
<path d="M34.103 41.3519C33.1713 43.1076 32.5403 45.007 32.2363 46.9713C43.3335 46.1657 58.3947 52.2241 64.8586 59.7352C65.9752 58.0574 66.803 56.1796 67.3113 54.1685C59.3336 46.3685 45.3197 41.3074 34.103 41.3519V41.3519Z" fill="#CBE9D4"/>
<path d="M33.3335 50.6484H36.1113V53.4262H33.3335V50.6484ZM36.1113 56.204H38.8891V58.9818H36.1113V56.204Z" fill="#88C9F9"/>
<path d="M41.6665 50.6454H44.4443V53.4232H41.6665V50.6454ZM47.2221 53.4232H49.9998V56.201H47.2221V53.4232ZM58.3332 58.9787H61.1109V61.7565H58.3332V58.9787ZM49.9998 61.7565H52.7776V64.5343H49.9998V61.7565ZM58.3332 45.0898H61.1109V47.8676H58.3332V45.0898Z" fill="#55ACEE"/>
<path d="M52.7778 56.2031H55.5556V58.9809H52.7778V56.2031Z" fill="#3B88C3"/>
</g>
<defs>
<clipPath id="clip0_27_11">
<rect width="100" height="100" fill="white"/>
</clipPath>
</defs>
</svg>
